PathFileType	4	(X/Y/Z)	Run_400 01
DataRate	CameraRate	NumFrames	NumMarkers	Units	OrigDataRate	OrigDataStartFrame	OrigNumFrames
120	120	4	41	mm	120	227	125
Frame#	Time	LASI			RASI			LPSI			RPSI			RTH1			RTH3			LTH1			LTH2			LTH3			RTB1			RTB2			RTB3			LTB1			LTB2			LTB3			RCAL			RTOE			RMT5			LCAL			LTOE			LMT5			LACR			RACR			CLAV			C7			RUA1			RUA2			RUA3			RLEL			RMEL			LUA1			LUA2			LUA3			LLEL			LMEL			RFAsuperior			RFAradius			RFAulna			LFAsuperior			LFAradius			LFAulna			
		X1	Y1	Z1	X2	Y2	Z2	X3	Y3	Z3	X4	Y4	Z4	X5	Y5	Z5	X6	Y6	Z6	X7	Y7	Z7	X8	Y8	Z8	X9	Y9	Z9	X10	Y10	Z10	X11	Y11	Z11	X12	Y12	Z12	X13	Y13	Z13	X14	Y14	Z14	X15	Y15	Z15	X16	Y16	Z16	X17	Y17	Z17	X18	Y18	Z18	X19	Y19	Z19	X20	Y20	Z20	X21	Y21	Z21	X22	Y22	Z22	X23	Y23	Z23	X24	Y24	Z24	X25	Y25	Z25	X26	Y26	Z26	X27	Y27	Z27	X28	Y28	Z28	X29	Y29	Z29	X30	Y30	Z30	X31	Y31	Z31	X32	Y32	Z32	X33	Y33	Z33	X34	Y34	Z34	X35	Y35	Z35	X36	Y36	Z36	X37	Y37	Z37	X38	Y38	Z38	X39	Y39	Z39	X40	Y40	Z40	X41	Y41	Z41	

221	2.175	936.5369930000001	972.939518	-461.334873	962.781564	947.424436	-234.435325	781.106579	998.448208	-378.636657	789.081591	988.092808	-281.406801	907.6639740000001	784.04526	-169.809685	911.1972	531.149632	-182.769353	926.951578	787.652499	-517.291939	1017.35878	704.117723	-493.353262	996.749276	582.975593	-452.206096	796.385081	436.066342	-251.110337	746.475457	495.126404	-196.658651	685.364586	493.53151	-265.298593	1066.687959	382.499528	-352.412162	1020.887164	307.811653	-420.172865	1018.354312	217.24986	-339.888026	576.873699	646.5018679999999	-285.350667	472.246332	462.177324	-299.954367	463.57356	496.135227	-210.026531	886.994063	107.910562	-325.213206	1090.924934	74.079798	-303.220275	1075.097251	63.415865	-395.450144	955.610316	1411.243415	-540.107116	933.0150149999999	1421.631218	-148.764827	1001.466335	1405.781885	-320.710049	884.691238	1474.265463	-363.352709	852.454675	1306.46743	-94.42590199999999	780.536053	1320.311817	-112.313176	795.527334	1241.755313	-65.95631400000001	745.3134219999999	1191.729463	-43.812228	708.196172	1178.423339	-117.521037	870.237611	1308.854038	-608.156933	791.039968	1294.114318	-607.0131	834.861259	1229.299613	-629.555024	764.39435	1185.816662	-661.65031	721.695982	1191.687585	-586.269333	816.395821	1084.772155	-58.2808	867.85232	990.79633	-119.877156	827.644957	961.839063	-69.77433499999999	853.182731	1095.747358	-631.1671689999999	929.647229	1054.420674	-535.430144	917.724208	1012.241826	-588.483438	
222	2.183333	933.0692790000001	970.941094	-462.542542	959.137426	941.022017	-236.524328	777.43745	995.795843	-377.555547	785.806838	984.6879740000001	-280.462705	909.818065	780.257658	-170.035037	930.197049	529.191908	-180.205076	921.334306	785.301137	-517.907584	1010.320375	701.892643	-493.839302	990.791768	579.24027	-454.601638	820.254334	434.439225	-249.356163	770.743217	492.497048	-193.905822	709.202266	491.341773	-261.479643	1050.314141	377.684281	-353.59774	1000.176088	305.726271	-422.080596	994.093559	214.847941	-341.451418	598.868395	645.4049189999999	-281.688581	497.53309	459.378955	-296.546165	490.100348	491.870476	-206.17905	854.563611	108.986179	-325.852702	1058.021087	73.664355	-303.779154	1042.090346	63.14367	-396.031681	959.121701	1404.439858	-540.084636	928.761379	1415.803467	-148.271035	1001.373922	1400.724941	-319.008237	885.7706460000001	1470.300732	-364.319137	845.2941049999999	1301.786607	-95.580889	773.672431	1315.163794	-116.234627	786.294034	1237.791885	-67.76191900000001	734.727322	1188.260386	-46.899622	700.354463	1174.304809	-121.379949	877.445108	1298.37385	-608.316243	797.942459	1282.372506	-610.069183	844.04232	1218.384002	-629.739362	775.703411	1173.076513	-663.889564	730.034937	1178.474782	-590.402507	800.733962	1077.06489	-55.748922	848.564834	978.672697	-112.794677	805.216374	953.540944	-63.059609	865.963758	1085.614372	-630.609251	940.2823540000001	1046.840449	-532.915925	930.943755	1004.216671	-586.187338	
223	2.191667	930.59893	969.655181	-463.741688	955.36975	936.177897	-237.538779	774.800077	993.990727	-377.009649	782.776247	982.8941170000001	-279.906246	911.023117	777.539717	-169.752611	950.080707	529.741845	-178.439666	915.416182	783.19678	-518.438043	1002.96101	700.26034	-494.529764	981.519757	574.932133	-456.29559	844.669888	433.781979	-248.070698	795.163145	490.524049	-191.49478	733.1617680000001	489.183977	-259.026347	1031.656208	370.879778	-355.072656	977.137234	301.489632	-423.599925	968.427741	211.507602	-342.139636	618.353961	642.819376	-277.964521	523.519514	453.565783	-293.300539	517.005063	484.530733	-202.221631	822.099167	109.887444	-326.628726	1025.222744	72.97615	-304.37232	1009.14145	62.589362	-396.623408	962.563833	1399.267139	-539.6702340000001	924.63123	1411.058803	-147.735044	1000.994372	1396.678813	-317.067238	886.386174	1466.910251	-364.729458	838.318846	1298.328083	-96.782657	767.410631	1311.459027	-120.56506	777.234702	1235.42648	-69.833078	724.253696	1186.42327	-50.102197	692.179411	1171.864612	-125.156791	884.134408	1290.279163	-608.058944	804.801526	1272.101767	-611.9164060000001	853.542204	1209.610744	-629.640089	787.790146	1161.666559	-665.505963	739.30665	1166.238894	-593.80309	784.954121	1071.488666	-53.763771	828.887304	969.088711	-106.248512	782.598349	947.6940540000001	-57.271408	879.767369	1077.078415	-629.388609	951.859718	1041.102797	-529.75071	945.3298129999999	998.029567	-583.174259	
224	2.2	928.784409	968.618878	-464.570431	951.562533	933.073124	-237.322013	772.808669	992.8035630000001	-377.207332	779.904096	981.667571	-280.163653	911.11445	775.766692	-169.185312	970.30213	532.967066	-177.461625	909.398968	781.259282	-518.936254	995.642635	697.857185	-495.307086	969.018329	570.362766	-456.92598	869.2537150000001	434.53198	-247.431112	819.173523	489.376815	-189.623253	756.992359	487.472308	-259.098927	1011.305707	362.779549	-355.830246	953.705935	295.694993	-424.061235	941.3743480000001	207.781967	-341.866309	635.252863	638.522429	-274.347018	549.806944	444.949401	-290.188834	544.077726	474.455687	-198.285831	789.74033	110.849221	-327.203389	992.595723	72.136583	-304.816575	976.310112	62.037172	-397.07343	965.970152	1395.863189	-538.979291	920.448887	1407.59665	-147.112284	1000.353768	1393.713408	-314.917941	886.45915	1464.176598	-364.813742	831.365531	1296.189493	-97.975746	761.657266	1309.495789	-125.157496	768.257975	1234.789642	-72.100264	713.88341	1186.472637	-53.366739	684.10601	1171.210785	-128.96151	890.175285	1284.62196	-607.62463	811.588706	1263.428972	-612.634185	863.153405	1203.016689	-629.523183	800.31023	1152.018408	-666.5399609999999	749.462414	1155.478179	-596.343697	769.2746969999999	1068.326699	-52.356645	809.244028	962.381385	-100.603658	760.308383	944.496502	-52.713973	894.19442	1070.515203	-627.523471	964.1445200000001	1037.782989	-525.985534	960.626309	994.117164	-579.333366	
